<!-- Exported by Character Map UWP -->
<svg height="100%" viewBox="0 64 960 896" width="100%" xmlns="http://www.w3.org/2000/svg" xmlns:xlink="http://www.w3.org/1999/xlink">
  <path d="M256,192L96,192C87.3333,192 79.8333,188.833 73.5,182.5C67.1667,176.167 64,168.667 64,160C64,151.333 67.1667,143.833 73.5,137.5C79.8333,131.167 87.3333,128 96,128L256,128C256,125.333 255.917,122.583 255.75,119.75C255.583,116.917 255.5,114 255.5,111C255.5,105.333 255.833,99.75 256.5,94.25C257.167,88.75 258.583,83.75 260.75,79.25C262.917,74.75 266.167,71.0834 270.5,68.25C274.833,65.4167 280.667,64.0001 288,64C295.333,64.0001 301.083,65.4167 305.25,68.25C309.417,71.0834 312.583,74.75 314.75,79.25C316.917,83.75 318.333,88.75 319,94.25C319.667,99.75 320,105.333 320,111L320,128L640,128C640,125.333 639.917,122.583 639.75,119.75C639.583,116.917 639.5,114 639.5,111C639.5,105.333 639.833,99.75 640.5,94.25C641.167,88.75 642.583,83.75 644.75,79.25C646.917,74.75 650.167,71.0834 654.5,68.25C658.833,65.4167 664.667,64.0001 672,64C679.333,64.0001 685.083,65.4167 689.25,68.25C693.417,71.0834 696.583,74.75 698.75,79.25C700.917,83.75 702.333,88.75 703,94.25C703.667,99.75 704,105.333 704,111L704,128L864,128C872.667,128 880.167,131.167 886.5,137.5C892.833,143.833 896,151.333 896,160C896,168.667 892.833,176.167 886.5,182.5C880.167,188.833 872.667,192 864,192L704,192L704,209C704,214.667 703.667,220.25 703,225.75C702.333,231.25 700.917,236.25 698.75,240.75C696.583,245.25 693.417,248.917 689.25,251.75C685.083,254.583 679.333,256 672,256C664.667,256 658.833,254.583 654.5,251.75C650.167,248.917 646.917,245.25 644.75,240.75C642.583,236.25 641.167,231.25 640.5,225.75C639.833,220.25 639.5,214.667 639.5,209C639.5,206 639.583,203.083 639.75,200.25C639.917,197.417 640,194.667 640,192L320,192L320,209C320,214.667 319.667,220.25 319,225.75C318.333,231.25 316.917,236.25 314.75,240.75C312.583,245.25 309.417,248.917 305.25,251.75C301.083,254.583 295.333,256 288,256C280.667,256 274.833,254.583 270.5,251.75C266.167,248.917 262.917,245.25 260.75,240.75C258.583,236.25 257.167,231.25 256.5,225.75C255.833,220.25 255.5,214.667 255.5,209C255.5,206 255.583,203.083 255.75,200.25C255.917,197.417 256,194.667 256,192ZM480,710C466,732 449.75,752.917 431.25,772.75C412.75,792.583 392.833,811 371.5,828C350.167,845 327.75,860.583 304.25,874.75C280.75,888.917 257.333,901.333 234,912C230,914 224.333,916.5 217,919.5C209.667,922.5 201.583,925.75 192.75,929.25C183.917,932.75 174.667,936.333 165,940C155.333,943.667 146.083,947 137.25,950C128.417,953 120.417,955.417 113.25,957.25C106.083,959.083 100.5,960 96.5,960C87.1667,960 79.4167,956.917 73.25,950.75C67.0833,944.583 64,936.833 64,927.5C64,919.833 66.3333,913.417 71,908.25C75.6667,903.083 81.5,899.333 88.5,897C111.167,890.333 133.167,883.25 154.5,875.75C175.833,868.25 197.167,859.333 218.5,849C241.167,838 263.75,825.417 286.25,811.25C308.75,797.083 330,781.25 350,763.75C370,746.25 388.167,727.167 404.5,706.5C420.833,685.833 434.333,663.667 445,640L32,640C23.3333,640 15.8333,636.833 9.5,630.5C3.16667,624.167 0,616.667 0,608C0,599.333 3.16667,591.833 9.5,585.5C15.8333,579.167 23.3333,576 32,576L128,576L128,352C128,343.333 131.167,335.833 137.5,329.5C143.833,323.167 151.333,320 160,320L448,320C448,317.333 447.917,314.583 447.75,311.75C447.583,308.917 447.5,306 447.5,303C447.5,297.333 447.833,291.75 448.5,286.25C449.167,280.75 450.583,275.75 452.75,271.25C454.917,266.75 458.167,263.083 462.5,260.25C466.833,257.417 472.667,256 480,256C487.333,256 493.083,257.417 497.25,260.25C501.417,263.083 504.583,266.75 506.75,271.25C508.917,275.75 510.333,280.75 511,286.25C511.667,291.75 512,297.333 512,303L512,320L800,320C808.667,320 816.167,323.167 822.5,329.5C828.833,335.833 832,343.333 832,352L832,576L928,576C936.667,576 944.167,579.167 950.5,585.5C956.833,591.833 960,599.333 960,608C960,616.667 956.833,624.167 950.5,630.5C944.167,636.833 936.667,640 928,640L515,640C525.333,663.667 538.667,685.833 555,706.5C571.333,727.167 589.5,746.25 609.5,763.75C629.5,781.25 650.75,797.083 673.25,811.25C695.75,825.417 718.5,838 741.5,849C763.167,859.333 784.583,868.167 805.75,875.5C826.917,882.833 849,890 872,897C879,899.333 884.75,903.083 889.25,908.25C893.75,913.417 896,919.833 896,927.5C896,936.5 892.917,944.167 886.75,950.5C880.583,956.833 873,960 864,960C861.667,960 859.167,959.667 856.5,959C834.167,954.333 812,947.75 790,939.25C768,930.75 746.667,921.667 726,912C702.333,901.333 678.833,888.917 655.5,874.75C632.167,860.583 609.833,845 588.5,828C567.167,811 547.25,792.583 528.75,772.75C510.25,752.917 494,732 480,710ZM192,384L192,576L448,576L448,384ZM512,384L512,576L768,576L768,384Z" fill="#000000" fill-opacity="1">
  </path>
</svg>